<?xml version="1.0" encoding="iso-8859-1"?>
<!-- Generator: Adobe Illustrator 17.1.0, SVG Export Plug-In . SVG Version: 6.00 Build 0)  -->
<!DOCTYPE svg PUBLIC "-//W3C//DTD SVG 1.1//EN" "http://www.w3.org/Graphics/SVG/1.1/DTD/svg11.dtd">
<svg version="1.1" id="Layer_1" xmlns="http://www.w3.org/2000/svg" xmlns:xlink="http://www.w3.org/1999/xlink" x="0px" y="0px"
	 viewBox="0 0 128 128" style="enable-background:new 0 0 128 128;" xml:space="preserve">
<polygon style="opacity:0.5;fill:#A1EF78;" points="-381.667,315 -450.333,315 -450.333,37.667 -381.667,37.667 -381.667,210.333 
	-367.667,210.333 -367.667,235.333 -381.667,235.333 "/>
<polygon style="opacity:0.5;fill:#A1EF78;" points="-180.333,-76.333 -365.667,-76.333 -365.667,-141.333 -273,-141.333 
	-273,-130.333 -180.333,-130.667 "/>
<polygon style="opacity:0.5;fill:#A1EF78;" points="-367.667,35.667 -450.333,35.667 -451.333,-250.333 -369,-250.333 
	-367.667,-217.667 -293.667,-217 -293.667,-144 -367.667,-144.333 "/>
<polygon style="opacity:0.5;fill:#A1EF78;" points="-196.333,83.333 -196.333,179.667 -379,179.667 -379,160.667 -350,160.667 
	-349.667,83.333 "/>
<rect x="-365.667" y="425.667" style="opacity:0.5;fill:#A1EF78;" width="166" height="63.667"/>
<polygon style="opacity:0.5;fill:#A1EF78;" points="-368.667,489.333 -450.333,490.333 -450.333,318.333 -382,318.333 
	-381.667,348.667 -199.667,348.667 -199.667,424 -368.667,423.667 "/>
</svg>
